<svg xmlns="http://www.w3.org/2000/svg" xmlns:xlink="http://www.w3.org/1999/xlink" width="600" zoomAndPan="magnify" viewBox="0 0 450 449.999984" height="600" preserveAspectRatio="xMidYMid meet" version="1.0"><defs><g/><clipPath id="id1"><path d="M 76.804688 28.386719 L 373.054688 28.386719 L 373.054688 421.386719 L 76.804688 421.386719 Z M 76.804688 28.386719 " clip-rule="nonzero"/></clipPath><clipPath id="id2"><path d="M 94.839844 45.949219 L 355.089844 45.949219 L 355.089844 405.199219 L 94.839844 405.199219 Z M 94.839844 45.949219 " clip-rule="nonzero"/></clipPath></defs><g clip-path="url(#id1)"><path fill="#ffffff" d="M 224.929688 28.386719 L 373.050781 224.886719 L 224.929688 421.386719 L 76.804688 224.886719 L 224.929688 28.386719 " fill-opacity="1" fill-rule="nonzero"/></g><g clip-path="url(#id2)"><path fill="#000000" d="M 224.964844 45.949219 L 355.089844 225.574219 L 224.964844 405.199219 L 94.84375 225.574219 L 224.964844 45.949219 " fill-opacity="1" fill-rule="nonzero"/></g><g fill="#ffffff" fill-opacity="0.302"><g transform="translate(139.775905, 281.722173)"><g><path d="M 68.992188 -46.730469 C 68.625 -47.007812 68.441406 -47.375 68.441406 -47.835938 C 68.347656 -48.203125 68.441406 -48.570312 68.71875 -48.9375 C 70.28125 -51.148438 71.476562 -53.539062 72.304688 -56.113281 C 73.039062 -58.691406 73.5 -61.265625 73.5 -63.933594 C 73.5 -67.246094 72.765625 -70.648438 71.476562 -73.960938 C 70.097656 -77.273438 68.074219 -80.214844 65.40625 -82.792969 C 62.738281 -85.367188 59.425781 -87.390625 55.46875 -89.046875 C 51.515625 -90.609375 46.914062 -91.4375 41.765625 -91.4375 L 12.417969 -91.4375 C 11.773438 -91.4375 11.316406 -91.164062 11.132812 -90.609375 C 10.855469 -90.058594 10.945312 -89.507812 11.40625 -89.140625 C 13.0625 -87.300781 13.984375 -85.09375 13.984375 -82.609375 L 13.984375 -8.832031 C 13.984375 -6.253906 13.0625 -4.046875 11.40625 -2.207031 C 11.039062 -1.65625 11.039062 -1.195312 11.316406 -0.734375 C 11.5 -0.183594 11.957031 0 12.601562 0 L 45.902344 0 C 51.054688 0 55.65625 -0.734375 59.609375 -2.300781 C 63.566406 -3.863281 66.878906 -5.980469 69.546875 -8.554688 C 72.214844 -11.132812 74.238281 -13.984375 75.617188 -17.292969 C 76.90625 -20.515625 77.640625 -23.824219 77.640625 -27.320312 C 77.640625 -31 76.8125 -34.496094 75.339844 -37.808594 C 73.867188 -41.121094 71.753906 -44.15625 68.992188 -46.730469 Z M 32.195312 -57.953125 L 32.195312 -70.003906 C 32.195312 -70.832031 32.472656 -71.570312 33.117188 -72.214844 C 33.761719 -72.765625 34.496094 -73.132812 35.417969 -73.132812 L 41.765625 -73.132812 C 44.0625 -73.132812 46.085938 -72.855469 47.835938 -72.304688 C 49.492188 -71.753906 50.964844 -71.109375 52.066406 -70.28125 C 53.171875 -69.359375 53.90625 -68.441406 54.457031 -67.335938 C 55.011719 -66.234375 55.285156 -65.039062 55.285156 -63.933594 C 55.285156 -61.632812 54.367188 -59.703125 52.617188 -58.136719 C 50.226562 -55.929688 46.546875 -54.828125 41.765625 -54.828125 L 35.417969 -54.828125 C 34.496094 -54.828125 33.761719 -55.101562 33.117188 -55.746094 C 32.472656 -56.296875 32.195312 -57.035156 32.195312 -57.953125 Z M 56.757812 -21.527344 C 54.367188 -19.316406 50.6875 -18.214844 45.902344 -18.214844 L 35.417969 -18.214844 C 34.496094 -18.214844 33.761719 -18.488281 33.117188 -19.132812 C 32.472656 -19.6875 32.195312 -20.515625 32.195312 -21.433594 L 32.195312 -33.394531 C 32.195312 -34.21875 32.472656 -34.957031 33.117188 -35.601562 C 33.761719 -36.246094 34.496094 -36.613281 35.417969 -36.613281 L 45.902344 -36.613281 C 48.203125 -36.613281 50.226562 -36.335938 51.882812 -35.785156 C 53.539062 -35.234375 55.011719 -34.496094 56.113281 -33.667969 C 57.21875 -32.75 58.046875 -31.828125 58.597656 -30.726562 C 59.148438 -29.621094 59.425781 -28.425781 59.425781 -27.320312 C 59.425781 -25.113281 58.507812 -23.183594 56.757812 -21.527344 Z M 56.757812 -21.527344 "/></g></g></g><g fill="#ffffff" fill-opacity="0.302"><g transform="translate(224.767393, 281.722173)"><g><path d="M 72.027344 -93.738281 L 71.9375 -93.648438 C 70.28125 -92.175781 68.441406 -91.4375 66.324219 -91.4375 L 19.042969 -91.4375 C 16.835938 -91.4375 14.996094 -92.175781 13.339844 -93.648438 L 13.339844 -93.738281 C 12.785156 -94.015625 12.328125 -94.015625 11.773438 -93.738281 C 11.222656 -93.464844 11.039062 -93.09375 11.039062 -92.542969 L 11.039062 -72.121094 C 11.039062 -71.476562 11.222656 -71.015625 11.773438 -70.832031 C 12.328125 -70.558594 12.785156 -70.558594 13.339844 -70.925781 C 14.996094 -72.398438 16.835938 -73.226562 19.042969 -73.226562 L 31.738281 -73.226562 C 32.195312 -73.226562 32.65625 -73.039062 33.023438 -72.671875 C 33.394531 -72.304688 33.578125 -71.84375 33.578125 -71.386719 L 33.578125 -8.09375 C 33.578125 -5.886719 32.839844 -3.957031 31.367188 -2.390625 L 31.277344 -2.300781 C 30.910156 -1.746094 30.910156 -1.289062 31.183594 -0.734375 C 31.367188 -0.183594 31.828125 0 32.472656 0 L 52.894531 0 C 53.445312 0 53.816406 -0.183594 54.089844 -0.734375 C 54.367188 -1.289062 54.367188 -1.746094 54.089844 -2.300781 C 52.527344 -3.957031 51.789062 -5.796875 51.789062 -8.003906 L 51.789062 -71.386719 C 51.789062 -71.84375 51.976562 -72.304688 52.34375 -72.671875 C 52.710938 -73.039062 53.078125 -73.226562 53.628906 -73.226562 L 66.324219 -73.226562 C 68.535156 -73.226562 70.375 -72.398438 71.9375 -70.925781 L 72.027344 -70.925781 C 72.488281 -70.558594 72.949219 -70.558594 73.5 -70.832031 C 74.054688 -71.015625 74.328125 -71.476562 74.328125 -72.121094 L 74.328125 -92.542969 C 74.328125 -93.09375 74.054688 -93.464844 73.5 -93.738281 C 72.949219 -94.015625 72.488281 -94.015625 72.027344 -93.738281 Z M 72.027344 -93.738281 "/></g></g></g><g fill="#ffffff" fill-opacity="0.502"><g transform="translate(139.795871, 281.608927)"><g><path d="M 68.992188 -46.730469 C 68.625 -47.007812 68.441406 -47.375 68.441406 -47.835938 C 68.347656 -48.203125 68.441406 -48.570312 68.71875 -48.9375 C 70.28125 -51.148438 71.476562 -53.539062 72.304688 -56.113281 C 73.039062 -58.691406 73.5 -61.265625 73.5 -63.933594 C 73.5 -67.246094 72.765625 -70.648438 71.476562 -73.960938 C 70.097656 -77.273438 68.074219 -80.214844 65.40625 -82.792969 C 62.738281 -85.367188 59.425781 -87.390625 55.46875 -89.046875 C 51.515625 -90.609375 46.914062 -91.4375 41.765625 -91.4375 L 12.417969 -91.4375 C 11.773438 -91.4375 11.316406 -91.164062 11.132812 -90.609375 C 10.855469 -90.058594 10.945312 -89.507812 11.40625 -89.140625 C 13.0625 -87.300781 13.984375 -85.09375 13.984375 -82.609375 L 13.984375 -8.832031 C 13.984375 -6.253906 13.0625 -4.046875 11.40625 -2.207031 C 11.039062 -1.65625 11.039062 -1.195312 11.316406 -0.734375 C 11.5 -0.183594 11.957031 0 12.601562 0 L 45.902344 0 C 51.054688 0 55.65625 -0.734375 59.609375 -2.300781 C 63.566406 -3.863281 66.878906 -5.980469 69.546875 -8.554688 C 72.214844 -11.132812 74.238281 -13.984375 75.617188 -17.292969 C 76.90625 -20.515625 77.640625 -23.824219 77.640625 -27.320312 C 77.640625 -31 76.8125 -34.496094 75.339844 -37.808594 C 73.867188 -41.121094 71.753906 -44.15625 68.992188 -46.730469 Z M 32.195312 -57.953125 L 32.195312 -70.003906 C 32.195312 -70.832031 32.472656 -71.570312 33.117188 -72.214844 C 33.761719 -72.765625 34.496094 -73.132812 35.417969 -73.132812 L 41.765625 -73.132812 C 44.0625 -73.132812 46.085938 -72.855469 47.835938 -72.304688 C 49.492188 -71.753906 50.964844 -71.109375 52.066406 -70.28125 C 53.171875 -69.359375 53.90625 -68.441406 54.457031 -67.335938 C 55.011719 -66.234375 55.285156 -65.039062 55.285156 -63.933594 C 55.285156 -61.632812 54.367188 -59.703125 52.617188 -58.136719 C 50.226562 -55.929688 46.546875 -54.828125 41.765625 -54.828125 L 35.417969 -54.828125 C 34.496094 -54.828125 33.761719 -55.101562 33.117188 -55.746094 C 32.472656 -56.296875 32.195312 -57.035156 32.195312 -57.953125 Z M 56.757812 -21.527344 C 54.367188 -19.316406 50.6875 -18.214844 45.902344 -18.214844 L 35.417969 -18.214844 C 34.496094 -18.214844 33.761719 -18.488281 33.117188 -19.132812 C 32.472656 -19.6875 32.195312 -20.515625 32.195312 -21.433594 L 32.195312 -33.394531 C 32.195312 -34.21875 32.472656 -34.957031 33.117188 -35.601562 C 33.761719 -36.246094 34.496094 -36.613281 35.417969 -36.613281 L 45.902344 -36.613281 C 48.203125 -36.613281 50.226562 -36.335938 51.882812 -35.785156 C 53.539062 -35.234375 55.011719 -34.496094 56.113281 -33.667969 C 57.21875 -32.75 58.046875 -31.828125 58.597656 -30.726562 C 59.148438 -29.621094 59.425781 -28.425781 59.425781 -27.320312 C 59.425781 -25.113281 58.507812 -23.183594 56.757812 -21.527344 Z M 56.757812 -21.527344 "/></g></g></g><g fill="#ffffff" fill-opacity="0.502"><g transform="translate(224.787358, 281.608927)"><g><path d="M 72.027344 -93.738281 L 71.9375 -93.648438 C 70.28125 -92.175781 68.441406 -91.4375 66.324219 -91.4375 L 19.042969 -91.4375 C 16.835938 -91.4375 14.996094 -92.175781 13.339844 -93.648438 L 13.339844 -93.738281 C 12.785156 -94.015625 12.328125 -94.015625 11.773438 -93.738281 C 11.222656 -93.464844 11.039062 -93.09375 11.039062 -92.542969 L 11.039062 -72.121094 C 11.039062 -71.476562 11.222656 -71.015625 11.773438 -70.832031 C 12.328125 -70.558594 12.785156 -70.558594 13.339844 -70.925781 C 14.996094 -72.398438 16.835938 -73.226562 19.042969 -73.226562 L 31.738281 -73.226562 C 32.195312 -73.226562 32.65625 -73.039062 33.023438 -72.671875 C 33.394531 -72.304688 33.578125 -71.84375 33.578125 -71.386719 L 33.578125 -8.09375 C 33.578125 -5.886719 32.839844 -3.957031 31.367188 -2.390625 L 31.277344 -2.300781 C 30.910156 -1.746094 30.910156 -1.289062 31.183594 -0.734375 C 31.367188 -0.183594 31.828125 0 32.472656 0 L 52.894531 0 C 53.445312 0 53.816406 -0.183594 54.089844 -0.734375 C 54.367188 -1.289062 54.367188 -1.746094 54.089844 -2.300781 C 52.527344 -3.957031 51.789062 -5.796875 51.789062 -8.003906 L 51.789062 -71.386719 C 51.789062 -71.84375 51.976562 -72.304688 52.34375 -72.671875 C 52.710938 -73.039062 53.078125 -73.226562 53.628906 -73.226562 L 66.324219 -73.226562 C 68.535156 -73.226562 70.375 -72.398438 71.9375 -70.925781 L 72.027344 -70.925781 C 72.488281 -70.558594 72.949219 -70.558594 73.5 -70.832031 C 74.054688 -71.015625 74.328125 -71.476562 74.328125 -72.121094 L 74.328125 -92.542969 C 74.328125 -93.09375 74.054688 -93.464844 73.5 -93.738281 C 72.949219 -94.015625 72.488281 -94.015625 72.027344 -93.738281 Z M 72.027344 -93.738281 "/></g></g></g><g fill="#ffffff" fill-opacity="1"><g transform="translate(139.815836, 281.49568)"><g><path d="M 68.992188 -46.730469 C 68.625 -47.007812 68.441406 -47.375 68.441406 -47.835938 C 68.347656 -48.203125 68.441406 -48.570312 68.71875 -48.9375 C 70.28125 -51.148438 71.476562 -53.539062 72.304688 -56.113281 C 73.039062 -58.691406 73.5 -61.265625 73.5 -63.933594 C 73.5 -67.246094 72.765625 -70.648438 71.476562 -73.960938 C 70.097656 -77.273438 68.074219 -80.214844 65.40625 -82.792969 C 62.738281 -85.367188 59.425781 -87.390625 55.46875 -89.046875 C 51.515625 -90.609375 46.914062 -91.4375 41.765625 -91.4375 L 12.417969 -91.4375 C 11.773438 -91.4375 11.316406 -91.164062 11.132812 -90.609375 C 10.855469 -90.058594 10.945312 -89.507812 11.40625 -89.140625 C 13.0625 -87.300781 13.984375 -85.09375 13.984375 -82.609375 L 13.984375 -8.832031 C 13.984375 -6.253906 13.0625 -4.046875 11.40625 -2.207031 C 11.039062 -1.65625 11.039062 -1.195312 11.316406 -0.734375 C 11.5 -0.183594 11.957031 0 12.601562 0 L 45.902344 0 C 51.054688 0 55.65625 -0.734375 59.609375 -2.300781 C 63.566406 -3.863281 66.878906 -5.980469 69.546875 -8.554688 C 72.214844 -11.132812 74.238281 -13.984375 75.617188 -17.292969 C 76.90625 -20.515625 77.640625 -23.824219 77.640625 -27.320312 C 77.640625 -31 76.8125 -34.496094 75.339844 -37.808594 C 73.867188 -41.121094 71.753906 -44.15625 68.992188 -46.730469 Z M 32.195312 -57.953125 L 32.195312 -70.003906 C 32.195312 -70.832031 32.472656 -71.570312 33.117188 -72.214844 C 33.761719 -72.765625 34.496094 -73.132812 35.417969 -73.132812 L 41.765625 -73.132812 C 44.0625 -73.132812 46.085938 -72.855469 47.835938 -72.304688 C 49.492188 -71.753906 50.964844 -71.109375 52.066406 -70.28125 C 53.171875 -69.359375 53.90625 -68.441406 54.457031 -67.335938 C 55.011719 -66.234375 55.285156 -65.039062 55.285156 -63.933594 C 55.285156 -61.632812 54.367188 -59.703125 52.617188 -58.136719 C 50.226562 -55.929688 46.546875 -54.828125 41.765625 -54.828125 L 35.417969 -54.828125 C 34.496094 -54.828125 33.761719 -55.101562 33.117188 -55.746094 C 32.472656 -56.296875 32.195312 -57.035156 32.195312 -57.953125 Z M 56.757812 -21.527344 C 54.367188 -19.316406 50.6875 -18.214844 45.902344 -18.214844 L 35.417969 -18.214844 C 34.496094 -18.214844 33.761719 -18.488281 33.117188 -19.132812 C 32.472656 -19.6875 32.195312 -20.515625 32.195312 -21.433594 L 32.195312 -33.394531 C 32.195312 -34.21875 32.472656 -34.957031 33.117188 -35.601562 C 33.761719 -36.246094 34.496094 -36.613281 35.417969 -36.613281 L 45.902344 -36.613281 C 48.203125 -36.613281 50.226562 -36.335938 51.882812 -35.785156 C 53.539062 -35.234375 55.011719 -34.496094 56.113281 -33.667969 C 57.21875 -32.75 58.046875 -31.828125 58.597656 -30.726562 C 59.148438 -29.621094 59.425781 -28.425781 59.425781 -27.320312 C 59.425781 -25.113281 58.507812 -23.183594 56.757812 -21.527344 Z M 56.757812 -21.527344 "/></g></g></g><g fill="#ffffff" fill-opacity="1"><g transform="translate(224.807324, 281.49568)"><g><path d="M 72.027344 -93.738281 L 71.9375 -93.648438 C 70.28125 -92.175781 68.441406 -91.4375 66.324219 -91.4375 L 19.042969 -91.4375 C 16.835938 -91.4375 14.996094 -92.175781 13.339844 -93.648438 L 13.339844 -93.738281 C 12.785156 -94.015625 12.328125 -94.015625 11.773438 -93.738281 C 11.222656 -93.464844 11.039062 -93.09375 11.039062 -92.542969 L 11.039062 -72.121094 C 11.039062 -71.476562 11.222656 -71.015625 11.773438 -70.832031 C 12.328125 -70.558594 12.785156 -70.558594 13.339844 -70.925781 C 14.996094 -72.398438 16.835938 -73.226562 19.042969 -73.226562 L 31.738281 -73.226562 C 32.195312 -73.226562 32.65625 -73.039062 33.023438 -72.671875 C 33.394531 -72.304688 33.578125 -71.84375 33.578125 -71.386719 L 33.578125 -8.09375 C 33.578125 -5.886719 32.839844 -3.957031 31.367188 -2.390625 L 31.277344 -2.300781 C 30.910156 -1.746094 30.910156 -1.289062 31.183594 -0.734375 C 31.367188 -0.183594 31.828125 0 32.472656 0 L 52.894531 0 C 53.445312 0 53.816406 -0.183594 54.089844 -0.734375 C 54.367188 -1.289062 54.367188 -1.746094 54.089844 -2.300781 C 52.527344 -3.957031 51.789062 -5.796875 51.789062 -8.003906 L 51.789062 -71.386719 C 51.789062 -71.84375 51.976562 -72.304688 52.34375 -72.671875 C 52.710938 -73.039062 53.078125 -73.226562 53.628906 -73.226562 L 66.324219 -73.226562 C 68.535156 -73.226562 70.375 -72.398438 71.9375 -70.925781 L 72.027344 -70.925781 C 72.488281 -70.558594 72.949219 -70.558594 73.5 -70.832031 C 74.054688 -71.015625 74.328125 -71.476562 74.328125 -72.121094 L 74.328125 -92.542969 C 74.328125 -93.09375 74.054688 -93.464844 73.5 -93.738281 C 72.949219 -94.015625 72.488281 -94.015625 72.027344 -93.738281 Z M 72.027344 -93.738281 "/></g></g></g></svg>