<svg xmlns="http://www.w3.org/2000/svg" xmlns:xlink="http://www.w3.org/1999/xlink" width="500" zoomAndPan="magnify" viewBox="0 0 375 374.999991" height="500" preserveAspectRatio="xMidYMid meet" version="1.0"><defs><g/><clipPath id="005940b08c"><path d="M 42.015625 57.089844 L 333.015625 57.089844 L 333.015625 309.089844 L 42.015625 309.089844 Z M 42.015625 57.089844 " clip-rule="nonzero"/></clipPath><clipPath id="07128c37fc"><path d="M 37.5 187.769531 L 48.75 187.769531 L 48.75 189.269531 L 37.5 189.269531 Z M 37.5 187.769531 " clip-rule="nonzero"/></clipPath><clipPath id="681844755c"><path d="M 326.039062 187.769531 L 337.289062 187.769531 L 337.289062 189.269531 L 326.039062 189.269531 Z M 326.039062 187.769531 " clip-rule="nonzero"/></clipPath><clipPath id="4b6c9faf38"><path d="M 114.992188 54.160156 L 120.992188 54.160156 L 120.992188 60.160156 L 114.992188 60.160156 Z M 114.992188 54.160156 " clip-rule="nonzero"/></clipPath><clipPath id="e1ab2851ae"><path d="M 115 54.160156 L 120.992188 54.160156 L 120.992188 60 L 115 60 Z M 115 54.160156 " clip-rule="nonzero"/></clipPath><clipPath id="3f454c2651"><path d="M 114.992188 306.46875 L 120.992188 306.46875 L 120.992188 312.46875 L 114.992188 312.46875 Z M 114.992188 306.46875 " clip-rule="nonzero"/></clipPath><clipPath id="c391af86d9"><path d="M 115 306.46875 L 120.992188 306.46875 L 120.992188 312.46875 L 115 312.46875 Z M 115 306.46875 " clip-rule="nonzero"/></clipPath><clipPath id="685865920b"><path d="M 115 307 L 120.992188 307 L 120.992188 312 L 115 312 Z M 115 307 " clip-rule="nonzero"/></clipPath><clipPath id="41bd264023"><path d="M 254.535156 54.160156 L 260.535156 54.160156 L 260.535156 60.160156 L 254.535156 60.160156 Z M 254.535156 54.160156 " clip-rule="nonzero"/></clipPath><clipPath id="30b6d02210"><path d="M 254.535156 54.160156 L 260.535156 54.160156 L 260.535156 60 L 254.535156 60 Z M 254.535156 54.160156 " clip-rule="nonzero"/></clipPath><clipPath id="e2efbf7e76"><path d="M 255 54.160156 L 260 54.160156 L 260 60 L 255 60 Z M 255 54.160156 " clip-rule="nonzero"/></clipPath><clipPath id="1224ac5838"><path d="M 254.535156 306.46875 L 260.535156 306.46875 L 260.535156 312.46875 L 254.535156 312.46875 Z M 254.535156 306.46875 " clip-rule="nonzero"/></clipPath></defs><g clip-path="url(#005940b08c)"><path fill="#100e0d" d="M 42.015625 182.695312 C 42.015625 102.492188 107.308594 37.195312 187.515625 37.195312 C 267.71875 37.195312 333.015625 102.492188 333.015625 182.695312 C 333.015625 262.898438 267.71875 328.195312 187.515625 328.195312 C 107.308594 328.195312 42.015625 262.898438 42.015625 182.695312 Z M 330.863281 182.695312 C 330.863281 103.636719 266.570312 39.34375 187.515625 39.34375 C 108.457031 39.34375 44.164062 103.636719 44.164062 182.695312 C 44.164062 261.753906 108.457031 326.042969 187.515625 326.042969 C 266.570312 326.042969 330.863281 261.753906 330.863281 182.695312 Z M 330.863281 182.695312 " fill-opacity="1" fill-rule="nonzero"/></g><g fill="#100e0d" fill-opacity="1"><g transform="translate(157.626805, 119.126985)"><g><path d="M 35.519531 -39.960938 C 43.441406 -42.121094 52.679688 -47.160156 52.679688 -59.160156 C 52.679688 -74.398438 33.960938 -75.238281 28.558594 -75.238281 L 5.761719 -75.238281 L 5.761719 0.121094 L 26.398438 0.121094 C 29.640625 0.121094 55.320312 -0.359375 55.320312 -20.761719 C 55.320312 -33.601562 45.601562 -38.640625 35.519531 -39.960938 Z M 24 -73.320312 C 35.519531 -73.320312 48.359375 -72.71875 48.359375 -57.839844 C 48.359375 -44.640625 35.039062 -40.558594 21.121094 -40.441406 L 9.960938 -40.441406 L 9.960938 -73.320312 Z M 20.878906 -1.800781 L 9.960938 -1.800781 L 9.960938 -38.519531 L 24 -38.519531 C 42.238281 -38.519531 51 -33.71875 51 -19.441406 C 51 -4.441406 34.679688 -1.800781 20.878906 -1.800781 Z M 20.878906 -1.800781 "/></g></g></g><g fill="#100e0d" fill-opacity="1"><g transform="translate(149.529149, 324.317878)"><g><path d="M 4.199219 0.121094 L 6.839844 0.121094 L 20.398438 -30.121094 L 54.238281 -30.121094 L 67.320312 0.121094 L 72 0.121094 L 39 -76.679688 L 38.398438 -76.679688 Z M 21.238281 -32.160156 L 37.679688 -69 L 53.398438 -32.160156 Z M 21.238281 -32.160156 "/></g></g></g><g fill="#100e0d" fill-opacity="1"><g transform="translate(64.374562, 212.495552)"><g><path d="M 43.28125 -33.585938 C 40.5 -34.035156 37.0625 -33.953125 32.972656 -33.339844 C 36.613281 -35.589844 39.230469 -38.046875 40.746094 -40.625 C 42.257812 -43.199219 42.339844 -45.246094 41.074219 -46.757812 C 39.765625 -48.273438 36.738281 -48.558594 31.949219 -47.699219 C 26.671875 -46.472656 21.640625 -44.386719 16.9375 -41.441406 C 12.230469 -38.453125 9.574219 -35.960938 8.960938 -33.871094 C 8.917969 -33.710938 8.917969 -33.503906 9 -33.21875 C 9.039062 -32.933594 9.246094 -32.6875 9.53125 -32.480469 C 9.816406 -32.277344 10.308594 -32.15625 11.003906 -32.15625 C 11.371094 -32.15625 11.660156 -32.277344 11.863281 -32.5625 C 12.066406 -32.851562 12.109375 -33.097656 12.066406 -33.382812 C 12.027344 -33.667969 11.824219 -33.792969 11.453125 -33.792969 C 11.414062 -33.792969 11.289062 -33.792969 11.167969 -33.832031 C 11.046875 -33.832031 10.921875 -33.871094 10.800781 -33.914062 C 10.675781 -33.953125 10.636719 -33.996094 10.636719 -34.078125 C 10.839844 -34.855469 11.945312 -36.082031 14.03125 -37.675781 C 16.117188 -39.273438 18.738281 -40.910156 21.886719 -42.503906 C 25.035156 -44.101562 28.390625 -45.328125 31.867188 -46.105469 C 35.671875 -46.800781 38.167969 -46.675781 39.3125 -45.695312 C 40.460938 -44.714844 40.542969 -43.324219 39.558594 -41.480469 C 38.578125 -39.640625 36.777344 -37.800781 34.160156 -35.960938 C 31.542969 -34.117188 28.390625 -32.6875 24.710938 -31.703125 C 25.363281 -34.035156 26.058594 -36.613281 26.835938 -39.4375 C 26.878906 -39.804688 26.796875 -40.050781 26.589844 -40.171875 C 26.34375 -40.296875 26.101562 -40.296875 25.8125 -40.171875 C 25.527344 -40.050781 25.28125 -39.804688 25.160156 -39.4375 C 23.605469 -33.667969 22.253906 -28.800781 21.148438 -24.914062 C 20.90625 -23.972656 20.660156 -23.113281 20.414062 -22.253906 C 19.554688 -19.226562 18.859375 -16.691406 18.367188 -14.605469 C 17.835938 -12.519531 17.632812 -10.964844 17.714844 -9.941406 C 17.796875 -8.878906 18.285156 -8.34375 19.1875 -8.34375 C 19.554688 -8.34375 19.800781 -8.46875 20.003906 -8.753906 C 20.210938 -9.039062 20.292969 -9.285156 20.25 -9.574219 C 20.210938 -9.859375 19.964844 -9.980469 19.59375 -9.980469 C 19.226562 -9.980469 19.226562 -10.839844 19.59375 -12.601562 C 19.964844 -14.359375 20.414062 -16.28125 20.988281 -18.410156 C 21.558594 -20.535156 22.050781 -22.296875 22.5 -23.726562 C 22.621094 -24.21875 22.746094 -24.628906 22.828125 -24.914062 C 23.277344 -26.425781 23.726562 -28.144531 24.257812 -29.988281 L 24.300781 -29.988281 C 24.585938 -30.027344 25.035156 -30.148438 25.570312 -30.273438 C 27.367188 -30.765625 29.863281 -31.253906 33.097656 -31.785156 C 36.285156 -32.277344 39.476562 -32.320312 42.628906 -31.949219 C 46.144531 -31.296875 48.3125 -29.824219 49.171875 -27.492188 C 49.992188 -25.160156 49.171875 -22.460938 46.757812 -19.390625 C 44.347656 -16.324219 39.96875 -13.335938 33.710938 -10.472656 C 26.46875 -7.445312 19.675781 -5.316406 13.253906 -4.050781 C 6.832031 -2.78125 2.988281 -2.453125 1.757812 -3.148438 C 1.800781 -3.476562 1.675781 -3.683594 1.433594 -3.804688 C 1.1875 -3.886719 0.941406 -3.84375 0.65625 -3.722656 C 0.367188 -3.601562 0.203125 -3.355469 0.0820312 -2.988281 C 0.0390625 -2.863281 0.0390625 -2.660156 0.0820312 -2.414062 C 0.121094 -2.167969 0.246094 -1.964844 0.492188 -1.757812 C 2.25 -0.816406 6.503906 -1.023438 13.296875 -2.414062 C 20.046875 -3.804688 27 -6.015625 34.078125 -9 C 40.949219 -12.148438 45.695312 -15.464844 48.355469 -19.023438 C 50.972656 -22.542969 51.792969 -25.648438 50.808594 -28.390625 C 49.785156 -31.132812 47.292969 -32.851562 43.28125 -33.585938 Z M 43.28125 -33.585938 "/></g></g></g><g fill="#100e0d" fill-opacity="1"><g transform="translate(116.653584, 212.495552)"><g><path d="M 1.636719 -22.910156 L 1.554688 -22.910156 C 1.351562 -22.949219 1.1875 -23.03125 1.105469 -23.238281 C 0.980469 -23.398438 0.980469 -23.605469 1.0625 -23.808594 C 1.105469 -23.972656 1.144531 -24.136719 1.1875 -24.257812 L 1.226562 -24.257812 C 1.308594 -24.585938 1.433594 -24.953125 1.636719 -25.324219 C 1.757812 -25.527344 1.921875 -25.730469 2.128906 -25.855469 C 2.332031 -25.976562 2.535156 -26.019531 2.742188 -25.976562 C 2.945312 -25.9375 3.109375 -25.8125 3.191406 -25.648438 C 3.273438 -25.445312 3.273438 -25.242188 3.148438 -25.035156 L 2.824219 -24.136719 L 2.660156 -23.644531 C 2.578125 -23.441406 2.453125 -23.238281 2.25 -23.113281 C 2.046875 -22.992188 1.839844 -22.910156 1.636719 -22.910156 Z M 9.65625 -20.210938 C 6.832031 -17.632812 4.539062 -16.40625 2.824219 -16.566406 C 1.964844 -16.691406 1.472656 -17.101562 1.390625 -17.878906 C 1.308594 -18.65625 1.433594 -19.59375 1.800781 -20.742188 C 1.882812 -21.191406 1.800781 -21.476562 1.59375 -21.601562 C 1.390625 -21.722656 1.105469 -21.722656 0.816406 -21.601562 C 0.492188 -21.476562 0.246094 -21.191406 0.121094 -20.742188 C -0.203125 -19.636719 -0.367188 -18.613281 -0.367188 -17.753906 C -0.367188 -16.894531 -0.121094 -16.199219 0.328125 -15.667969 C 0.777344 -15.136719 1.59375 -14.890625 2.742188 -14.890625 C 4.910156 -14.890625 7.566406 -16.324219 10.636719 -19.144531 C 10.921875 -19.433594 11.046875 -19.71875 11.003906 -20.003906 C 10.964844 -20.25 10.800781 -20.414062 10.554688 -20.496094 C 10.269531 -20.578125 9.980469 -20.496094 9.65625 -20.210938 Z M 9.65625 -20.210938 "/></g></g></g><g fill="#100e0d" fill-opacity="1"><g transform="translate(126.307614, 212.495552)"><g><path d="M 11.25 -20.292969 C 9.492188 -18.859375 8.058594 -17.878906 7.035156 -17.34375 C 6.015625 -16.8125 4.992188 -16.527344 4.050781 -16.527344 C 2.742188 -16.527344 1.964844 -17.140625 1.757812 -18.367188 C 1.554688 -19.554688 1.675781 -21.3125 2.210938 -23.5625 C 2.699219 -25.8125 3.394531 -28.554688 4.253906 -31.703125 C 4.582031 -32.890625 4.910156 -34.117188 5.277344 -35.425781 C 5.398438 -35.960938 5.5625 -36.492188 5.726562 -37.023438 L 6.136719 -38.578125 C 6.21875 -38.945312 6.136719 -39.230469 5.933594 -39.355469 C 5.6875 -39.476562 5.398438 -39.476562 5.113281 -39.355469 C 4.828125 -39.230469 4.621094 -38.945312 4.5 -38.578125 L 4.050781 -37.023438 C 3.925781 -36.492188 3.761719 -35.960938 3.640625 -35.425781 C 3.3125 -34.199219 2.988281 -33.015625 2.660156 -31.910156 C 1.636719 -28.1875 0.859375 -25.035156 0.328125 -22.542969 C -0.203125 -20.003906 -0.246094 -18.082031 0.203125 -16.8125 C 0.613281 -15.546875 1.757812 -14.890625 3.601562 -14.890625 C 4.949219 -14.890625 6.300781 -15.257812 7.566406 -15.953125 C 8.835938 -16.648438 10.351562 -17.714844 12.109375 -19.144531 C 12.4375 -19.433594 12.601562 -19.675781 12.558594 -19.964844 C 12.519531 -20.25 12.355469 -20.414062 12.109375 -20.535156 C 11.863281 -20.617188 11.578125 -20.535156 11.25 -20.292969 Z M 11.25 -20.292969 "/></g></g></g><g fill="#100e0d" fill-opacity="1"><g transform="translate(137.434291, 212.495552)"><g><path d="M 14.074219 -20.210938 C 11.210938 -17.632812 8.917969 -16.40625 7.199219 -16.566406 C 6.21875 -16.691406 5.726562 -17.183594 5.726562 -18 C 5.6875 -18.777344 5.851562 -19.71875 6.175781 -20.742188 L 6.257812 -20.988281 C 6.300781 -21.355469 6.257812 -21.601562 6.054688 -21.722656 C 5.851562 -21.84375 5.605469 -21.84375 5.316406 -21.765625 C 5.03125 -21.683594 4.828125 -21.476562 4.664062 -21.148438 C 3.96875 -19.882812 3.355469 -18.898438 2.863281 -18.246094 C 2.371094 -17.550781 2.003906 -17.101562 1.71875 -16.894531 C 1.433594 -16.648438 1.226562 -16.527344 1.144531 -16.527344 C 1.105469 -16.527344 1.023438 -16.527344 0.980469 -16.566406 C 0.898438 -16.566406 0.816406 -16.609375 0.777344 -16.691406 C 0.738281 -16.773438 0.695312 -16.894531 0.695312 -17.101562 C 0.695312 -17.507812 0.816406 -17.960938 1.0625 -18.492188 C 1.269531 -18.980469 1.511719 -19.390625 1.800781 -19.71875 C 2.085938 -20.046875 2.289062 -20.128906 2.496094 -19.964844 C 2.699219 -19.757812 2.988281 -19.71875 3.273438 -19.839844 C 3.558594 -19.964844 3.804688 -20.167969 3.96875 -20.453125 C 4.089844 -20.742188 4.089844 -20.988281 3.886719 -21.230469 C 3.273438 -21.84375 2.578125 -21.925781 1.800781 -21.519531 C 1.023438 -21.109375 0.367188 -20.453125 -0.164062 -19.515625 C -0.738281 -18.574219 -1.023438 -17.589844 -1.023438 -16.609375 C -0.941406 -15.464844 -0.367188 -14.890625 0.695312 -14.890625 C 1.71875 -14.890625 2.824219 -15.710938 4.007812 -17.304688 C 4.132812 -16.445312 4.460938 -15.832031 4.992188 -15.464844 C 5.523438 -15.09375 6.21875 -14.890625 7.117188 -14.890625 C 9.285156 -14.890625 11.945312 -16.324219 15.054688 -19.144531 C 15.339844 -19.433594 15.464844 -19.71875 15.421875 -20.003906 C 15.339844 -20.25 15.175781 -20.414062 14.933594 -20.496094 C 14.644531 -20.578125 14.359375 -20.496094 14.074219 -20.210938 Z M 14.074219 -20.210938 "/></g></g></g><g fill="#100e0d" fill-opacity="1"><g transform="translate(151.506266, 212.495552)"><g><path d="M 11.25 -20.292969 C 9.492188 -18.859375 8.058594 -17.878906 7.035156 -17.34375 C 6.015625 -16.8125 4.992188 -16.527344 4.050781 -16.527344 C 2.742188 -16.527344 1.964844 -17.140625 1.757812 -18.367188 C 1.554688 -19.554688 1.675781 -21.3125 2.210938 -23.5625 C 2.699219 -25.8125 3.394531 -28.554688 4.253906 -31.703125 C 4.582031 -32.890625 4.910156 -34.117188 5.277344 -35.425781 C 5.398438 -35.960938 5.5625 -36.492188 5.726562 -37.023438 L 6.136719 -38.578125 C 6.21875 -38.945312 6.136719 -39.230469 5.933594 -39.355469 C 5.6875 -39.476562 5.398438 -39.476562 5.113281 -39.355469 C 4.828125 -39.230469 4.621094 -38.945312 4.5 -38.578125 L 4.050781 -37.023438 C 3.925781 -36.492188 3.761719 -35.960938 3.640625 -35.425781 C 3.3125 -34.199219 2.988281 -33.015625 2.660156 -31.910156 C 1.636719 -28.1875 0.859375 -25.035156 0.328125 -22.542969 C -0.203125 -20.003906 -0.246094 -18.082031 0.203125 -16.8125 C 0.613281 -15.546875 1.757812 -14.890625 3.601562 -14.890625 C 4.949219 -14.890625 6.300781 -15.257812 7.566406 -15.953125 C 8.835938 -16.648438 10.351562 -17.714844 12.109375 -19.144531 C 12.4375 -19.433594 12.601562 -19.675781 12.558594 -19.964844 C 12.519531 -20.25 12.355469 -20.414062 12.109375 -20.535156 C 11.863281 -20.617188 11.578125 -20.535156 11.25 -20.292969 Z M 11.25 -20.292969 "/></g></g></g><g fill="#100e0d" fill-opacity="1"><g transform="translate(162.632944, 212.495552)"><g/></g></g><g fill="#100e0d" fill-opacity="1"><g transform="translate(183.659092, 212.495552)"><g><path d="M 12.96875 -19.675781 C 15.339844 -26.183594 17.753906 -31.417969 20.167969 -35.386719 C 22.582031 -39.355469 24.871094 -42.21875 27.082031 -43.976562 C 29.25 -45.738281 31.214844 -46.597656 32.890625 -46.597656 C 35.140625 -46.597656 36.449219 -44.183594 36.777344 -39.394531 C 37.105469 -34.609375 36.492188 -27.980469 34.9375 -19.554688 C 32.480469 -19.554688 29.988281 -19.554688 27.410156 -19.59375 C 21.804688 -19.675781 16.976562 -19.71875 12.96875 -19.675781 Z M 44.835938 -19.515625 L 36.574219 -19.515625 C 37.226562 -22.992188 37.757812 -26.386719 38.128906 -29.78125 C 38.496094 -33.136719 38.660156 -36.203125 38.535156 -38.988281 C 38.414062 -41.769531 37.964844 -44.019531 37.1875 -45.695312 C 36.367188 -47.375 35.101562 -48.230469 33.339844 -48.230469 C 29.578125 -48.230469 25.773438 -45.738281 21.96875 -40.746094 C 18.164062 -35.714844 14.605469 -28.71875 11.332031 -19.675781 C 5.316406 -19.636719 1.882812 -19.1875 0.941406 -18.285156 C 0.328125 -17.714844 0.0820312 -17.101562 0.285156 -16.40625 C 0.492188 -15.710938 0.816406 -15.175781 1.351562 -14.769531 C 1.636719 -14.5625 1.921875 -14.5625 2.210938 -14.726562 C 2.496094 -14.890625 2.699219 -15.136719 2.824219 -15.421875 C 2.945312 -15.710938 2.863281 -15.953125 2.617188 -16.160156 C 2.496094 -16.28125 2.332031 -16.445312 2.210938 -16.648438 C 2.085938 -16.855469 1.964844 -17.058594 1.921875 -17.222656 C 2.988281 -17.714844 5.933594 -17.960938 10.757812 -18 C 9.492188 -14.359375 8.304688 -10.472656 7.160156 -6.300781 C 7.117188 -5.933594 7.199219 -5.726562 7.445312 -5.605469 C 7.648438 -5.480469 7.9375 -5.480469 8.222656 -5.605469 C 8.507812 -5.726562 8.714844 -5.933594 8.835938 -6.300781 C 9.980469 -10.59375 11.167969 -14.523438 12.394531 -18.042969 C 16.117188 -18.082031 20.578125 -18.042969 25.730469 -17.960938 C 28.472656 -17.917969 31.417969 -17.917969 34.609375 -17.878906 C 33.667969 -12.925781 32.398438 -7.445312 30.804688 -1.511719 C 30.722656 -1.144531 30.804688 -0.941406 31.050781 -0.816406 C 31.253906 -0.695312 31.542969 -0.695312 31.828125 -0.816406 C 32.113281 -0.941406 32.320312 -1.144531 32.441406 -1.511719 C 33.546875 -5.398438 34.8125 -10.882812 36.246094 -17.878906 C 38.824219 -17.835938 41.5625 -17.835938 44.386719 -17.835938 C 44.753906 -17.835938 45 -18 45.203125 -18.285156 C 45.410156 -18.574219 45.492188 -18.816406 45.449219 -19.105469 C 45.410156 -19.390625 45.203125 -19.515625 44.835938 -19.515625 Z M 44.835938 -19.515625 "/></g></g></g><g fill="#100e0d" fill-opacity="1"><g transform="translate(232.951916, 212.495552)"><g><path d="M 29.046875 -35.265625 L 5.851562 -35.265625 C 6.546875 -37.921875 7.324219 -40.785156 8.140625 -43.894531 C 8.222656 -44.265625 8.140625 -44.507812 7.9375 -44.632812 C 7.691406 -44.753906 7.40625 -44.753906 7.117188 -44.632812 C 6.832031 -44.507812 6.628906 -44.265625 6.503906 -43.894531 C 5.644531 -40.785156 4.867188 -37.921875 4.171875 -35.265625 L -6.75 -35.265625 C -7.117188 -35.265625 -7.363281 -35.140625 -7.527344 -34.855469 C -7.730469 -34.570312 -7.8125 -34.324219 -7.773438 -34.035156 C -7.730469 -33.75 -7.566406 -33.628906 -7.28125 -33.628906 L 3.722656 -33.628906 C 2.945312 -30.640625 2.210938 -27.941406 1.554688 -25.527344 C -1.105469 -15.953125 -2.660156 -9.941406 -3.109375 -7.527344 C -3.3125 -6.421875 -3.355469 -5.523438 -3.230469 -4.828125 C -3.109375 -4.089844 -2.578125 -3.722656 -1.636719 -3.722656 C -1.269531 -3.722656 -0.980469 -3.84375 -0.777344 -4.132812 C -0.574219 -4.417969 -0.53125 -4.703125 -0.574219 -4.992188 C -0.613281 -5.277344 -0.816406 -5.398438 -1.1875 -5.398438 C -1.308594 -5.398438 -1.433594 -5.441406 -1.511719 -5.5625 C -1.59375 -5.6875 -1.636719 -5.890625 -1.636719 -6.21875 C -1.636719 -6.546875 -1.554688 -7.035156 -1.433594 -7.691406 C -0.859375 -10.351562 0.695312 -16.324219 3.191406 -25.527344 L 5.398438 -33.628906 L 28.636719 -33.628906 C 29.003906 -33.628906 29.292969 -33.75 29.496094 -34.035156 C 29.699219 -34.324219 29.742188 -34.570312 29.699219 -34.855469 C 29.660156 -35.140625 29.414062 -35.265625 29.046875 -35.265625 Z M 29.046875 -35.265625 "/></g></g></g><g fill="#100e0d" fill-opacity="1"><g transform="translate(238.678882, 212.495552)"><g><path d="M 13.417969 -20.496094 C 12.3125 -19.882812 11.210938 -19.433594 10.0625 -19.226562 C 8.878906 -18.980469 8.019531 -18.898438 7.445312 -19.023438 C 7.117188 -19.105469 6.871094 -19.269531 6.75 -19.554688 C 6.628906 -19.839844 6.503906 -20.128906 6.421875 -20.453125 C 6.339844 -20.90625 6.21875 -21.273438 6.015625 -21.601562 C 5.808594 -21.925781 5.398438 -22.089844 4.785156 -22.089844 C 4.050781 -22.089844 3.394531 -21.804688 2.863281 -21.230469 C 2.332031 -20.617188 1.839844 -19.921875 1.433594 -19.144531 C 1.554688 -19.675781 1.71875 -20.25 1.921875 -20.945312 C 1.964844 -21.3125 1.882812 -21.558594 1.675781 -21.683594 C 1.433594 -21.804688 1.1875 -21.804688 0.898438 -21.683594 C 0.613281 -21.558594 0.367188 -21.3125 0.246094 -20.945312 C -0.367188 -18.777344 -0.695312 -17.183594 -0.738281 -16.242188 C -0.816406 -15.257812 -0.53125 -14.769531 0.164062 -14.769531 C 0.613281 -14.769531 1.023438 -14.972656 1.308594 -15.421875 C 1.59375 -15.832031 1.882812 -16.40625 2.167969 -17.140625 C 2.332031 -17.507812 2.535156 -17.917969 2.824219 -18.449219 C 3.066406 -18.941406 3.3125 -19.390625 3.601562 -19.839844 C 3.886719 -20.25 4.132812 -20.453125 4.335938 -20.453125 C 4.460938 -20.453125 4.539062 -20.371094 4.582031 -20.25 C 4.621094 -20.128906 4.703125 -19.921875 4.746094 -19.71875 C 4.867188 -19.269531 5.03125 -18.816406 5.316406 -18.367188 C 5.5625 -17.917969 6.015625 -17.589844 6.667969 -17.425781 C 7.445312 -17.265625 8.550781 -17.34375 9.980469 -17.632812 C 11.371094 -17.917969 12.722656 -18.410156 14.03125 -19.144531 C 14.398438 -19.351562 14.5625 -19.636719 14.605469 -19.921875 C 14.605469 -20.210938 14.480469 -20.414062 14.277344 -20.578125 C 14.074219 -20.699219 13.785156 -20.699219 13.417969 -20.496094 Z M 13.417969 -20.496094 "/></g></g></g><g fill="#100e0d" fill-opacity="1"><g transform="translate(251.973632, 212.495552)"><g><path d="M -4.417969 7.242188 C -5.03125 7.691406 -5.441406 7.691406 -5.644531 7.242188 C -5.851562 6.789062 -5.933594 6.175781 -5.851562 5.398438 C -5.644531 3.558594 -4.746094 1.105469 -3.191406 -1.964844 C -1.636719 -4.992188 0.449219 -8.019531 3.066406 -11.003906 C 2.046875 -7.199219 0.859375 -3.519531 -0.449219 0.0390625 C -1.800781 3.601562 -3.109375 6.015625 -4.417969 7.242188 Z M 15.054688 -20.699219 C 11.78125 -19.757812 8.753906 -18.121094 6.015625 -15.871094 C 6.339844 -17.058594 6.585938 -18.082031 6.789062 -18.898438 C 6.996094 -19.675781 7.160156 -20.292969 7.28125 -20.742188 C 7.363281 -21.273438 7.242188 -21.558594 6.871094 -21.683594 C 6.503906 -21.765625 6.175781 -21.640625 5.808594 -21.273438 C 5.6875 -21.109375 5.523438 -20.945312 5.359375 -20.742188 C 4.621094 -19.882812 3.761719 -18.941406 2.824219 -17.917969 C 1.839844 -16.894531 1.105469 -16.40625 0.613281 -16.40625 C 0.574219 -16.40625 0.53125 -16.40625 0.492188 -16.40625 C 0.449219 -16.40625 0.449219 -16.445312 0.410156 -16.488281 C 0.367188 -16.527344 0.328125 -16.609375 0.328125 -16.730469 C 0.328125 -17.183594 0.449219 -17.671875 0.695312 -18.246094 C 0.941406 -18.777344 1.226562 -19.226562 1.59375 -19.59375 C 1.964844 -19.964844 2.25 -20.046875 2.535156 -19.839844 C 2.78125 -19.636719 3.066406 -19.636719 3.355469 -19.800781 C 3.640625 -19.921875 3.84375 -20.167969 3.96875 -20.453125 C 4.089844 -20.742188 4.050781 -20.988281 3.804688 -21.230469 C 3.109375 -21.765625 2.332031 -21.84375 1.511719 -21.394531 C 0.695312 -20.945312 0 -20.25 -0.53125 -19.269531 C -1.105469 -18.285156 -1.390625 -17.265625 -1.390625 -16.242188 C -1.269531 -15.21875 -0.777344 -14.726562 0.164062 -14.726562 C 0.941406 -14.726562 1.71875 -15.054688 2.535156 -15.75 C 3.355469 -16.40625 4.132812 -17.183594 4.910156 -18.082031 C 4.621094 -16.9375 4.296875 -15.546875 3.84375 -13.910156 C 0.53125 -10.636719 -2.085938 -7.160156 -4.089844 -3.519531 C -6.09375 0.121094 -7.28125 3.191406 -7.566406 5.6875 C -7.691406 7.566406 -7.324219 8.671875 -6.421875 9.039062 C -5.523438 9.410156 -4.582031 9.164062 -3.558594 8.386719 C -1.964844 6.996094 -0.410156 4.335938 1.105469 0.367188 C 2.578125 -3.558594 4.007812 -8.140625 5.359375 -13.335938 C 8.265625 -16.078125 11.496094 -18.042969 15.136719 -19.144531 C 15.503906 -19.269531 15.75 -19.515625 15.871094 -19.800781 C 15.996094 -20.085938 15.953125 -20.332031 15.832031 -20.535156 C 15.710938 -20.742188 15.421875 -20.824219 15.054688 -20.699219 Z M 15.054688 -20.699219 "/></g></g></g><g fill="#100e0d" fill-opacity="1"><g transform="translate(266.863745, 212.495552)"><g><path d="M 4.582031 -18.574219 C 4.171875 -18.738281 3.925781 -18.941406 3.804688 -19.226562 C 3.683594 -19.515625 3.640625 -19.757812 3.761719 -20.003906 C 3.886719 -20.292969 4.050781 -20.453125 4.253906 -20.453125 C 4.460938 -20.453125 4.582031 -20.292969 4.703125 -20.003906 C 4.785156 -19.675781 4.746094 -19.1875 4.582031 -18.574219 Z M 12.722656 -20.292969 C 10.59375 -18.816406 8.386719 -18.164062 6.136719 -18.285156 C 6.585938 -19.800781 6.585938 -20.824219 6.054688 -21.4375 C 5.523438 -22.050781 4.828125 -22.214844 4.007812 -22.007812 C 3.191406 -21.804688 2.578125 -21.191406 2.167969 -20.167969 C 1.921875 -19.554688 1.921875 -18.941406 2.128906 -18.367188 C 2.332031 -17.753906 2.863281 -17.304688 3.683594 -17.019531 C 3.3125 -16.648438 2.863281 -16.445312 2.371094 -16.445312 C 1.59375 -16.445312 1.226562 -16.8125 1.1875 -17.507812 C 1.144531 -18.203125 1.308594 -18.980469 1.675781 -19.757812 C 1.800781 -20.128906 1.800781 -20.414062 1.59375 -20.578125 C 1.390625 -20.742188 1.144531 -20.78125 0.859375 -20.742188 C 0.574219 -20.660156 0.328125 -20.453125 0.121094 -20.085938 C -0.574219 -18.410156 -0.738281 -17.101562 -0.285156 -16.160156 C 0.164062 -15.21875 0.898438 -14.769531 1.921875 -14.769531 C 3.148438 -14.769531 4.296875 -15.421875 5.316406 -16.691406 C 6.546875 -16.566406 7.894531 -16.691406 9.410156 -17.058594 C 10.882812 -17.425781 12.273438 -18.121094 13.582031 -19.105469 C 13.867188 -19.390625 14.03125 -19.636719 13.992188 -19.921875 C 13.949219 -20.210938 13.828125 -20.371094 13.582031 -20.496094 C 13.335938 -20.617188 13.050781 -20.535156 12.722656 -20.292969 Z M 12.722656 -20.292969 "/></g></g></g><g fill="#100e0d" fill-opacity="1"><g transform="translate(279.585797, 212.495552)"><g><path d="M 16.117188 -20.210938 C 13.296875 -17.632812 11.003906 -16.40625 9.285156 -16.566406 C 8.34375 -16.691406 7.855469 -17.140625 7.8125 -17.878906 C 7.773438 -18.613281 7.894531 -19.472656 8.183594 -20.414062 C 8.222656 -20.617188 8.265625 -20.78125 8.304688 -20.988281 C 8.386719 -21.355469 8.34375 -21.601562 8.140625 -21.722656 C 7.9375 -21.84375 7.691406 -21.84375 7.40625 -21.804688 C 7.117188 -21.722656 6.914062 -21.519531 6.710938 -21.191406 C 5.03125 -18.082031 3.519531 -16.527344 2.085938 -16.527344 C 1.636719 -16.527344 1.351562 -16.773438 1.269531 -17.265625 C 1.1875 -17.753906 1.226562 -18.328125 1.390625 -18.980469 C 1.554688 -19.636719 1.757812 -20.25 1.964844 -20.78125 C 2.085938 -21.148438 2.085938 -21.394531 1.882812 -21.558594 C 1.675781 -21.722656 1.390625 -21.765625 1.105469 -21.683594 C 0.816406 -21.601562 0.574219 -21.394531 0.410156 -21.027344 C -0.0390625 -20.003906 -0.285156 -19.0625 -0.410156 -18.121094 C -0.53125 -17.183594 -0.410156 -16.445312 -0.121094 -15.832031 C 0.164062 -15.21875 0.777344 -14.890625 1.675781 -14.890625 C 2.046875 -14.890625 2.660156 -15.054688 3.4375 -15.339844 C 4.214844 -15.628906 5.113281 -16.363281 6.09375 -17.46875 C 6.136719 -16.566406 6.464844 -15.914062 6.996094 -15.503906 C 7.527344 -15.09375 8.265625 -14.890625 9.203125 -14.890625 C 11.371094 -14.890625 14.03125 -16.324219 17.101562 -19.144531 C 17.386719 -19.433594 17.507812 -19.71875 17.46875 -20.003906 C 17.425781 -20.25 17.265625 -20.414062 17.019531 -20.496094 C 16.730469 -20.578125 16.445312 -20.496094 16.117188 -20.210938 Z M 16.117188 -20.210938 "/></g></g></g><g fill="#100e0d" fill-opacity="1"><g transform="translate(295.621303, 212.495552)"><g><path d="M 29.046875 -35.265625 L 5.851562 -35.265625 C 6.546875 -37.921875 7.324219 -40.785156 8.140625 -43.894531 C 8.222656 -44.265625 8.140625 -44.507812 7.9375 -44.632812 C 7.691406 -44.753906 7.40625 -44.753906 7.117188 -44.632812 C 6.832031 -44.507812 6.628906 -44.265625 6.503906 -43.894531 C 5.644531 -40.785156 4.867188 -37.921875 4.171875 -35.265625 L -6.75 -35.265625 C -7.117188 -35.265625 -7.363281 -35.140625 -7.527344 -34.855469 C -7.730469 -34.570312 -7.8125 -34.324219 -7.773438 -34.035156 C -7.730469 -33.75 -7.566406 -33.628906 -7.28125 -33.628906 L 3.722656 -33.628906 C 2.945312 -30.640625 2.210938 -27.941406 1.554688 -25.527344 C -1.105469 -15.953125 -2.660156 -9.941406 -3.109375 -7.527344 C -3.3125 -6.421875 -3.355469 -5.523438 -3.230469 -4.828125 C -3.109375 -4.089844 -2.578125 -3.722656 -1.636719 -3.722656 C -1.269531 -3.722656 -0.980469 -3.84375 -0.777344 -4.132812 C -0.574219 -4.417969 -0.53125 -4.703125 -0.574219 -4.992188 C -0.613281 -5.277344 -0.816406 -5.398438 -1.1875 -5.398438 C -1.308594 -5.398438 -1.433594 -5.441406 -1.511719 -5.5625 C -1.59375 -5.6875 -1.636719 -5.890625 -1.636719 -6.21875 C -1.636719 -6.546875 -1.554688 -7.035156 -1.433594 -7.691406 C -0.859375 -10.351562 0.695312 -16.324219 3.191406 -25.527344 L 5.398438 -33.628906 L 28.636719 -33.628906 C 29.003906 -33.628906 29.292969 -33.75 29.496094 -34.035156 C 29.699219 -34.324219 29.742188 -34.570312 29.699219 -34.855469 C 29.660156 -35.140625 29.414062 -35.265625 29.046875 -35.265625 Z M 29.046875 -35.265625 "/></g></g></g><g fill="#100e0d" fill-opacity="1"><g transform="translate(301.34827, 212.495552)"><g><path d="M 1.636719 -22.910156 L 1.554688 -22.910156 C 1.351562 -22.949219 1.1875 -23.03125 1.105469 -23.238281 C 0.980469 -23.398438 0.980469 -23.605469 1.0625 -23.808594 C 1.105469 -23.972656 1.144531 -24.136719 1.1875 -24.257812 L 1.226562 -24.257812 C 1.308594 -24.585938 1.433594 -24.953125 1.636719 -25.324219 C 1.757812 -25.527344 1.921875 -25.730469 2.128906 -25.855469 C 2.332031 -25.976562 2.535156 -26.019531 2.742188 -25.976562 C 2.945312 -25.9375 3.109375 -25.8125 3.191406 -25.648438 C 3.273438 -25.445312 3.273438 -25.242188 3.148438 -25.035156 L 2.824219 -24.136719 L 2.660156 -23.644531 C 2.578125 -23.441406 2.453125 -23.238281 2.25 -23.113281 C 2.046875 -22.992188 1.839844 -22.910156 1.636719 -22.910156 Z M 9.65625 -20.210938 C 6.832031 -17.632812 4.539062 -16.40625 2.824219 -16.566406 C 1.964844 -16.691406 1.472656 -17.101562 1.390625 -17.878906 C 1.308594 -18.65625 1.433594 -19.59375 1.800781 -20.742188 C 1.882812 -21.191406 1.800781 -21.476562 1.59375 -21.601562 C 1.390625 -21.722656 1.105469 -21.722656 0.816406 -21.601562 C 0.492188 -21.476562 0.246094 -21.191406 0.121094 -20.742188 C -0.203125 -19.636719 -0.367188 -18.613281 -0.367188 -17.753906 C -0.367188 -16.894531 -0.121094 -16.199219 0.328125 -15.667969 C 0.777344 -15.136719 1.59375 -14.890625 2.742188 -14.890625 C 4.910156 -14.890625 7.566406 -16.324219 10.636719 -19.144531 C 10.921875 -19.433594 11.046875 -19.71875 11.003906 -20.003906 C 10.964844 -20.25 10.800781 -20.414062 10.554688 -20.496094 C 10.269531 -20.578125 9.980469 -20.496094 9.65625 -20.210938 Z M 9.65625 -20.210938 "/></g></g></g><g clip-path="url(#07128c37fc)"><path stroke-linecap="square" transform="matrix(0.53066, 0, 0, 0.497319, 36.757077, 182.30155)" fill-opacity="1" fill="#100e0d" fill-rule="nonzero" stroke-linejoin="miter" d="M 2.673469 11.246264 L 21.260277 11.230555 C 21.598888 11.230555 21.893332 11.348374 22.136249 11.591867 C 22.379166 11.83536 22.496944 12.125981 22.496944 12.471584 C 22.496944 12.809333 22.379166 13.107808 22.136249 13.343447 C 21.893332 13.58694 21.598888 13.712614 21.260277 13.712614 L 2.673469 13.728323 C 2.327497 13.728323 2.033052 13.610504 1.790136 13.36701 C 1.55458 13.123517 1.429441 12.832897 1.429441 12.487294 C 1.429441 12.149545 1.55458 11.858924 1.790136 11.615431 C 2.033052 11.371938 2.327497 11.246264 2.673469 11.246264 Z M 2.673469 11.246264 " stroke="#000000" stroke-width="0.12" stroke-opacity="1" stroke-miterlimit="4"/></g><g clip-path="url(#681844755c)"><path stroke-linecap="square" transform="matrix(0.53066, 0, 0, 0.497319, 325.298069, 182.30155)" fill-opacity="1" fill="#100e0d" fill-rule="nonzero" stroke-linejoin="miter" d="M 2.669834 11.246264 L 21.256642 11.230555 C 21.602614 11.230555 21.897059 11.348374 22.139975 11.591867 C 22.375531 11.83536 22.50067 12.125981 22.50067 12.471584 C 22.50067 12.809333 22.375531 13.107808 22.139975 13.343447 C 21.897059 13.58694 21.602614 13.712614 21.256642 13.712614 L 2.669834 13.728323 C 2.331223 13.728323 2.036778 13.610504 1.793862 13.36701 C 1.550945 13.123517 1.433167 12.832897 1.433167 12.487294 C 1.433167 12.149545 1.550945 11.858924 1.793862 11.615431 C 2.036778 11.371938 2.331223 11.246264 2.669834 11.246264 Z M 2.669834 11.246264 " stroke="#000000" stroke-width="0.12" stroke-opacity="1" stroke-miterlimit="4"/></g><g clip-path="url(#4b6c9faf38)"><path fill="#100e0d" d="M 120.992188 57.160156 C 120.992188 58.816406 119.648438 60.160156 117.992188 60.160156 C 116.335938 60.160156 114.992188 58.816406 114.992188 57.160156 C 114.992188 55.503906 116.335938 54.160156 117.992188 54.160156 C 119.648438 54.160156 120.992188 55.503906 120.992188 57.160156 M 120.816406 57.160156 C 120.816406 55.601562 119.554688 54.335938 117.992188 54.335938 C 116.433594 54.335938 115.167969 55.601562 115.167969 57.160156 C 115.167969 58.71875 116.433594 59.984375 117.992188 59.984375 C 119.554688 59.984375 120.816406 58.71875 120.816406 57.160156 Z M 120.816406 57.160156 " fill-opacity="1" fill-rule="nonzero"/></g><g clip-path="url(#e1ab2851ae)"><path fill="#100e0d" d="M 120.535156 57.195312 C 120.535156 58.605469 119.390625 59.75 117.980469 59.75 C 116.566406 59.75 115.421875 58.605469 115.421875 57.195312 C 115.421875 55.78125 116.566406 54.640625 117.980469 54.640625 C 119.390625 54.640625 120.535156 55.78125 120.535156 57.195312 M 120.359375 57.195312 C 120.359375 55.878906 119.292969 54.816406 117.980469 54.816406 C 116.664062 54.816406 115.601562 55.878906 115.601562 57.195312 C 115.601562 58.507812 116.664062 59.574219 117.980469 59.574219 C 119.292969 59.574219 120.359375 58.507812 120.359375 57.195312 Z M 120.359375 57.195312 " fill-opacity="1" fill-rule="nonzero"/><path fill="#100e0d" d="M 117.980469 54.808594 C 116.664062 54.808594 115.59375 55.878906 115.59375 57.195312 C 115.59375 58.511719 116.664062 59.578125 117.980469 59.578125 C 119.296875 59.578125 120.363281 58.511719 120.363281 57.195312 C 120.363281 55.878906 119.296875 54.808594 117.980469 54.808594 Z M 117.980469 54.808594 " fill-opacity="1" fill-rule="nonzero"/><path fill="#100e0d" d="M 120.15625 57.988281 C 120.070312 58.21875 119.949219 58.433594 119.800781 58.621094 L 119.691406 58.535156 C 119.832031 58.355469 119.941406 58.15625 120.023438 57.941406 Z M 119.757812 58.679688 C 119.601562 58.863281 119.414062 59.023438 119.210938 59.152344 L 119.132812 59.03125 C 119.328125 58.914062 119.503906 58.761719 119.648438 58.585938 Z M 119.148438 59.191406 C 118.941406 59.308594 118.710938 59.398438 118.46875 59.449219 L 118.441406 59.3125 C 118.667969 59.265625 118.882812 59.179688 119.078125 59.066406 Z M 118.398438 59.460938 C 118.269531 59.484375 118.136719 59.496094 118 59.496094 C 117.886719 59.496094 117.78125 59.488281 117.675781 59.476562 L 117.695312 59.335938 C 117.792969 59.347656 117.894531 59.355469 118 59.355469 C 118.128906 59.355469 118.253906 59.34375 118.375 59.324219 Z M 117.601562 59.464844 C 117.359375 59.421875 117.128906 59.339844 116.917969 59.226562 L 116.984375 59.101562 C 117.183594 59.210938 117.398438 59.285156 117.625 59.324219 Z M 116.855469 59.191406 C 116.644531 59.070312 116.453125 58.914062 116.292969 58.734375 L 116.394531 58.640625 C 116.546875 58.8125 116.726562 58.957031 116.925781 59.070312 Z M 116.242188 58.679688 C 116.089844 58.496094 115.960938 58.289062 115.871094 58.058594 L 116 58.007812 C 116.085938 58.222656 116.207031 58.417969 116.351562 58.589844 Z M 115.84375 57.992188 C 115.761719 57.769531 115.714844 57.53125 115.707031 57.28125 L 115.847656 57.277344 C 115.855469 57.511719 115.898438 57.734375 115.976562 57.945312 Z M 115.707031 57.207031 C 115.707031 57.207031 115.707031 57.207031 115.707031 57.203125 C 115.707031 56.957031 115.746094 56.714844 115.816406 56.492188 L 115.953125 56.535156 C 115.882812 56.746094 115.847656 56.972656 115.847656 57.203125 C 115.847656 57.207031 115.847656 57.207031 115.847656 57.207031 Z M 115.839844 56.421875 C 115.925781 56.191406 116.042969 55.980469 116.191406 55.789062 L 116.304688 55.878906 C 116.164062 56.054688 116.050781 56.253906 115.972656 56.472656 Z M 116.238281 55.734375 C 116.394531 55.546875 116.578125 55.386719 116.785156 55.257812 L 116.859375 55.378906 C 116.664062 55.5 116.492188 55.648438 116.347656 55.824219 Z M 116.847656 55.21875 C 117.054688 55.101562 117.28125 55.011719 117.523438 54.960938 L 117.550781 55.097656 C 117.324219 55.144531 117.113281 55.230469 116.917969 55.34375 Z M 117.59375 54.945312 C 117.726562 54.921875 117.859375 54.910156 118 54.910156 C 118.109375 54.910156 118.214844 54.917969 118.320312 54.933594 L 118.300781 55.074219 C 118.203125 55.058594 118.101562 55.050781 118 55.050781 C 117.867188 55.050781 117.742188 55.0625 117.621094 55.085938 Z M 118.390625 54.945312 C 118.636719 54.988281 118.867188 55.066406 119.078125 55.179688 L 119.011719 55.304688 C 118.8125 55.199219 118.597656 55.121094 118.367188 55.082031 Z M 119.140625 55.214844 C 119.351562 55.335938 119.542969 55.488281 119.703125 55.671875 L 119.597656 55.765625 C 119.445312 55.59375 119.269531 55.449219 119.070312 55.335938 Z M 119.75 55.726562 C 119.90625 55.910156 120.035156 56.117188 120.125 56.34375 L 119.996094 56.398438 C 119.910156 56.183594 119.789062 55.988281 119.644531 55.816406 Z M 120.152344 56.414062 C 120.234375 56.636719 120.28125 56.875 120.289062 57.125 L 120.148438 57.128906 C 120.140625 56.894531 120.097656 56.671875 120.019531 56.460938 Z M 120.292969 57.195312 C 120.292969 57.199219 120.292969 57.203125 120.292969 57.203125 C 120.292969 57.453125 120.253906 57.695312 120.179688 57.917969 L 120.042969 57.875 C 120.113281 57.664062 120.152344 57.4375 120.152344 57.203125 C 120.152344 57.203125 120.152344 57.199219 120.152344 57.195312 Z M 120.292969 57.195312 " fill-opacity="1" fill-rule="nonzero"/></g><g clip-path="url(#3f454c2651)"><path fill="#100e0d" d="M 120.992188 309.46875 C 120.992188 311.128906 119.648438 312.46875 117.992188 312.46875 C 116.335938 312.46875 114.992188 311.128906 114.992188 309.46875 C 114.992188 307.8125 116.335938 306.46875 117.992188 306.46875 C 119.648438 306.46875 120.992188 307.8125 120.992188 309.46875 M 120.816406 309.46875 C 120.816406 307.910156 119.554688 306.648438 117.992188 306.648438 C 116.433594 306.648438 115.167969 307.910156 115.167969 309.46875 C 115.167969 311.03125 116.433594 312.292969 117.992188 312.292969 C 119.554688 312.292969 120.816406 311.03125 120.816406 309.46875 Z M 120.816406 309.46875 " fill-opacity="1" fill-rule="nonzero"/></g><g clip-path="url(#c391af86d9)"><path fill="#100e0d" d="M 120.535156 309.503906 C 120.535156 310.914062 119.390625 312.058594 117.980469 312.058594 C 116.566406 312.058594 115.421875 310.914062 115.421875 309.503906 C 115.421875 308.09375 116.566406 306.949219 117.980469 306.949219 C 119.390625 306.949219 120.535156 308.09375 120.535156 309.503906 M 120.359375 309.503906 C 120.359375 308.191406 119.292969 307.125 117.980469 307.125 C 116.664062 307.125 115.601562 308.191406 115.601562 309.503906 C 115.601562 310.820312 116.664062 311.882812 117.980469 311.882812 C 119.292969 311.882812 120.359375 310.820312 120.359375 309.503906 Z M 120.359375 309.503906 " fill-opacity="1" fill-rule="nonzero"/></g><g clip-path="url(#685865920b)"><path fill="#100e0d" d="M 117.980469 307.121094 C 116.664062 307.121094 115.59375 308.1875 115.59375 309.503906 C 115.59375 310.820312 116.664062 311.886719 117.980469 311.886719 C 119.296875 311.886719 120.363281 310.820312 120.363281 309.503906 C 120.363281 308.1875 119.296875 307.121094 117.980469 307.121094 Z M 117.980469 307.121094 " fill-opacity="1" fill-rule="nonzero"/><path fill="#100e0d" d="M 120.15625 310.300781 C 120.070312 310.53125 119.949219 310.742188 119.800781 310.933594 L 119.691406 310.84375 C 119.832031 310.667969 119.941406 310.46875 120.023438 310.25 Z M 119.757812 310.988281 C 119.601562 311.175781 119.414062 311.335938 119.210938 311.464844 L 119.132812 311.34375 C 119.328125 311.222656 119.503906 311.074219 119.648438 310.898438 Z M 119.148438 311.5 C 118.941406 311.621094 118.710938 311.710938 118.46875 311.761719 L 118.441406 311.621094 C 118.667969 311.574219 118.882812 311.492188 119.078125 311.378906 Z M 118.398438 311.773438 C 118.269531 311.796875 118.136719 311.808594 118 311.808594 C 117.886719 311.808594 117.78125 311.800781 117.675781 311.785156 L 117.695312 311.644531 C 117.792969 311.660156 117.894531 311.667969 118 311.667969 C 118.128906 311.667969 118.253906 311.65625 118.375 311.636719 Z M 117.601562 311.773438 C 117.359375 311.730469 117.128906 311.652344 116.917969 311.539062 L 116.984375 311.414062 C 117.183594 311.519531 117.398438 311.59375 117.625 311.636719 Z M 116.855469 311.503906 C 116.644531 311.382812 116.453125 311.226562 116.292969 311.046875 L 116.394531 310.953125 C 116.546875 311.121094 116.726562 311.265625 116.925781 311.378906 Z M 116.242188 310.992188 C 116.089844 310.808594 115.960938 310.597656 115.871094 310.371094 L 116 310.320312 C 116.085938 310.53125 116.207031 310.726562 116.351562 310.902344 Z M 115.84375 310.304688 C 115.761719 310.082031 115.714844 309.839844 115.707031 309.59375 L 115.847656 309.585938 C 115.855469 309.820312 115.898438 310.046875 115.976562 310.253906 Z M 115.707031 309.519531 C 115.707031 309.515625 115.707031 309.515625 115.707031 309.515625 C 115.707031 309.265625 115.746094 309.027344 115.816406 308.804688 L 115.953125 308.847656 C 115.882812 309.058594 115.847656 309.28125 115.847656 309.515625 C 115.847656 309.515625 115.847656 309.515625 115.847656 309.519531 Z M 115.839844 308.734375 C 115.925781 308.503906 116.042969 308.289062 116.191406 308.101562 L 116.304688 308.1875 C 116.164062 308.367188 116.050781 308.566406 115.972656 308.78125 Z M 116.238281 308.042969 C 116.394531 307.859375 116.578125 307.699219 116.785156 307.570312 L 116.859375 307.6875 C 116.664062 307.808594 116.492188 307.960938 116.347656 308.136719 Z M 116.847656 307.53125 C 117.054688 307.410156 117.28125 307.320312 117.523438 307.269531 L 117.550781 307.410156 C 117.324219 307.457031 117.113281 307.539062 116.917969 307.652344 Z M 117.59375 307.257812 C 117.726562 307.234375 117.859375 307.222656 118 307.222656 C 118.109375 307.222656 118.214844 307.230469 118.320312 307.242188 L 118.300781 307.382812 C 118.203125 307.371094 118.101562 307.363281 118 307.363281 C 117.867188 307.363281 117.742188 307.375 117.621094 307.394531 Z M 118.390625 307.253906 C 118.636719 307.296875 118.867188 307.378906 119.078125 307.488281 L 119.011719 307.613281 C 118.8125 307.507812 118.597656 307.433594 118.367188 307.394531 Z M 119.140625 307.527344 C 119.351562 307.648438 119.542969 307.800781 119.703125 307.980469 L 119.597656 308.074219 C 119.445312 307.90625 119.269531 307.761719 119.070312 307.648438 Z M 119.75 308.035156 C 119.90625 308.21875 120.035156 308.429688 120.125 308.65625 L 119.996094 308.707031 C 119.910156 308.496094 119.789062 308.300781 119.644531 308.125 Z M 120.152344 308.722656 C 120.234375 308.945312 120.28125 309.183594 120.289062 309.433594 L 120.148438 309.4375 C 120.140625 309.203125 120.097656 308.980469 120.019531 308.773438 Z M 120.292969 309.507812 C 120.292969 309.507812 120.292969 309.511719 120.292969 309.515625 C 120.292969 309.765625 120.253906 310.003906 120.179688 310.230469 L 120.042969 310.1875 C 120.113281 309.976562 120.152344 309.75 120.152344 309.515625 C 120.152344 309.511719 120.152344 309.511719 120.152344 309.507812 Z M 120.292969 309.507812 " fill-opacity="1" fill-rule="nonzero"/></g><g clip-path="url(#41bd264023)"><path fill="#100e0d" d="M 260.535156 57.160156 C 260.535156 58.816406 259.191406 60.160156 257.535156 60.160156 C 255.878906 60.160156 254.535156 58.816406 254.535156 57.160156 C 254.535156 55.503906 255.878906 54.160156 257.535156 54.160156 C 259.191406 54.160156 260.535156 55.503906 260.535156 57.160156 M 260.359375 57.160156 C 260.359375 55.601562 259.09375 54.335938 257.535156 54.335938 C 255.976562 54.335938 254.710938 55.601562 254.710938 57.160156 C 254.710938 58.71875 255.976562 59.984375 257.535156 59.984375 C 259.09375 59.984375 260.359375 58.71875 260.359375 57.160156 Z M 260.359375 57.160156 " fill-opacity="1" fill-rule="nonzero"/></g><g clip-path="url(#30b6d02210)"><path fill="#100e0d" d="M 260.074219 57.195312 C 260.074219 58.605469 258.929688 59.75 257.519531 59.75 C 256.109375 59.75 254.964844 58.605469 254.964844 57.195312 C 254.964844 55.78125 256.109375 54.640625 257.519531 54.640625 C 258.929688 54.640625 260.074219 55.78125 260.074219 57.195312 M 259.898438 57.195312 C 259.898438 55.878906 258.835938 54.816406 257.519531 54.816406 C 256.207031 54.816406 255.140625 55.878906 255.140625 57.195312 C 255.140625 58.507812 256.207031 59.574219 257.519531 59.574219 C 258.835938 59.574219 259.898438 58.507812 259.898438 57.195312 Z M 259.898438 57.195312 " fill-opacity="1" fill-rule="nonzero"/></g><g clip-path="url(#e2efbf7e76)"><path fill="#100e0d" d="M 257.519531 54.808594 C 256.203125 54.808594 255.136719 55.878906 255.136719 57.195312 C 255.136719 58.511719 256.203125 59.578125 257.519531 59.578125 C 258.835938 59.578125 259.902344 58.511719 259.902344 57.195312 C 259.902344 55.878906 258.835938 54.808594 257.519531 54.808594 Z M 257.519531 54.808594 " fill-opacity="1" fill-rule="nonzero"/><path fill="#100e0d" d="M 259.695312 57.988281 C 259.613281 58.21875 259.492188 58.433594 259.34375 58.621094 L 259.234375 58.535156 C 259.371094 58.355469 259.484375 58.15625 259.5625 57.941406 Z M 259.296875 58.679688 C 259.140625 58.863281 258.957031 59.023438 258.75 59.152344 L 258.675781 59.03125 C 258.871094 58.914062 259.042969 58.761719 259.191406 58.585938 Z M 258.6875 59.191406 C 258.480469 59.308594 258.253906 59.398438 258.011719 59.449219 L 257.984375 59.3125 C 258.210938 59.265625 258.421875 59.179688 258.617188 59.066406 Z M 257.941406 59.460938 C 257.8125 59.484375 257.675781 59.496094 257.539062 59.496094 C 257.429688 59.496094 257.320312 59.488281 257.214844 59.476562 L 257.234375 59.335938 C 257.335938 59.347656 257.4375 59.355469 257.539062 59.355469 C 257.667969 59.355469 257.792969 59.34375 257.917969 59.324219 Z M 257.144531 59.464844 C 256.902344 59.421875 256.671875 59.339844 256.460938 59.226562 L 256.527344 59.101562 C 256.722656 59.210938 256.941406 59.285156 257.167969 59.324219 Z M 256.394531 59.191406 C 256.183594 59.070312 255.996094 58.914062 255.832031 58.734375 L 255.9375 58.640625 C 256.089844 58.8125 256.269531 58.957031 256.464844 59.070312 Z M 255.785156 58.679688 C 255.628906 58.496094 255.503906 58.289062 255.414062 58.058594 L 255.542969 58.007812 C 255.628906 58.222656 255.746094 58.417969 255.894531 58.589844 Z M 255.386719 57.992188 C 255.304688 57.769531 255.257812 57.53125 255.25 57.28125 L 255.390625 57.277344 C 255.398438 57.511719 255.441406 57.734375 255.519531 57.945312 Z M 255.246094 57.207031 C 255.246094 57.207031 255.246094 57.207031 255.246094 57.203125 C 255.246094 56.957031 255.285156 56.714844 255.359375 56.492188 L 255.492188 56.535156 C 255.425781 56.746094 255.386719 56.972656 255.386719 57.203125 C 255.386719 57.207031 255.386719 57.207031 255.386719 57.207031 Z M 255.382812 56.421875 C 255.46875 56.191406 255.585938 55.980469 255.734375 55.789062 L 255.84375 55.878906 C 255.707031 56.054688 255.59375 56.253906 255.515625 56.472656 Z M 255.78125 55.734375 C 255.9375 55.546875 256.121094 55.386719 256.328125 55.257812 L 256.402344 55.378906 C 256.207031 55.5 256.035156 55.648438 255.886719 55.824219 Z M 256.390625 55.21875 C 256.597656 55.101562 256.824219 55.011719 257.066406 54.960938 L 257.09375 55.097656 C 256.867188 55.144531 256.652344 55.230469 256.460938 55.34375 Z M 257.136719 54.945312 C 257.269531 54.921875 257.402344 54.910156 257.539062 54.910156 C 257.648438 54.910156 257.757812 54.917969 257.863281 54.933594 L 257.84375 55.074219 C 257.742188 55.058594 257.644531 55.050781 257.539062 55.050781 C 257.410156 55.050781 257.285156 55.0625 257.160156 55.085938 Z M 257.933594 54.945312 C 258.175781 54.988281 258.40625 55.066406 258.617188 55.179688 L 258.550781 55.304688 C 258.355469 55.199219 258.136719 55.121094 257.910156 55.082031 Z M 258.683594 55.214844 C 258.894531 55.335938 259.082031 55.488281 259.246094 55.671875 L 259.140625 55.765625 C 258.988281 55.59375 258.808594 55.449219 258.613281 55.335938 Z M 259.292969 55.726562 C 259.449219 55.910156 259.574219 56.117188 259.667969 56.34375 L 259.535156 56.398438 C 259.449219 56.183594 259.332031 55.988281 259.183594 55.816406 Z M 259.695312 56.414062 C 259.777344 56.636719 259.824219 56.875 259.832031 57.125 L 259.691406 57.128906 C 259.683594 56.894531 259.636719 56.671875 259.5625 56.460938 Z M 259.832031 57.195312 C 259.832031 57.199219 259.832031 57.203125 259.832031 57.203125 C 259.832031 57.453125 259.792969 57.695312 259.71875 57.917969 L 259.585938 57.875 C 259.65625 57.664062 259.691406 57.4375 259.691406 57.203125 C 259.691406 57.203125 259.691406 57.199219 259.691406 57.195312 Z M 259.832031 57.195312 " fill-opacity="1" fill-rule="nonzero"/></g><g clip-path="url(#1224ac5838)"><path fill="#100e0d" d="M 260.535156 309.46875 C 260.535156 311.128906 259.191406 312.46875 257.535156 312.46875 C 255.878906 312.46875 254.535156 311.128906 254.535156 309.46875 C 254.535156 307.8125 255.878906 306.46875 257.535156 306.46875 C 259.191406 306.46875 260.535156 307.8125 260.535156 309.46875 M 260.359375 309.46875 C 260.359375 307.910156 259.09375 306.648438 257.535156 306.648438 C 255.976562 306.648438 254.710938 307.910156 254.710938 309.46875 C 254.710938 311.03125 255.976562 312.292969 257.535156 312.292969 C 259.09375 312.292969 260.359375 311.03125 260.359375 309.46875 Z M 260.359375 309.46875 " fill-opacity="1" fill-rule="nonzero"/><path fill="#100e0d" d="M 260.074219 309.503906 C 260.074219 310.914062 258.929688 312.058594 257.519531 312.058594 C 256.109375 312.058594 254.964844 310.914062 254.964844 309.503906 C 254.964844 308.09375 256.109375 306.949219 257.519531 306.949219 C 258.929688 306.949219 260.074219 308.09375 260.074219 309.503906 M 259.898438 309.503906 C 259.898438 308.191406 258.835938 307.125 257.519531 307.125 C 256.207031 307.125 255.140625 308.191406 255.140625 309.503906 C 255.140625 310.820312 256.207031 311.882812 257.519531 311.882812 C 258.835938 311.882812 259.898438 310.820312 259.898438 309.503906 Z M 259.898438 309.503906 " fill-opacity="1" fill-rule="nonzero"/></g><path fill="#100e0d" d="M 257.519531 307.121094 C 256.203125 307.121094 255.136719 308.1875 255.136719 309.503906 C 255.136719 310.820312 256.203125 311.886719 257.519531 311.886719 C 258.835938 311.886719 259.902344 310.820312 259.902344 309.503906 C 259.902344 308.1875 258.835938 307.121094 257.519531 307.121094 Z M 257.519531 307.121094 " fill-opacity="1" fill-rule="nonzero"/><path fill="#100e0d" d="M 259.695312 310.300781 C 259.613281 310.53125 259.492188 310.742188 259.34375 310.933594 L 259.234375 310.84375 C 259.371094 310.667969 259.484375 310.46875 259.5625 310.25 Z M 259.296875 310.988281 C 259.140625 311.175781 258.957031 311.335938 258.75 311.464844 L 258.675781 311.34375 C 258.871094 311.222656 259.042969 311.074219 259.191406 310.898438 Z M 258.6875 311.5 C 258.480469 311.621094 258.253906 311.710938 258.011719 311.761719 L 257.984375 311.621094 C 258.210938 311.574219 258.421875 311.492188 258.617188 311.378906 Z M 257.941406 311.773438 C 257.8125 311.796875 257.675781 311.808594 257.539062 311.808594 C 257.429688 311.808594 257.320312 311.800781 257.214844 311.785156 L 257.234375 311.644531 C 257.335938 311.660156 257.4375 311.667969 257.539062 311.667969 C 257.667969 311.667969 257.792969 311.65625 257.917969 311.636719 Z M 257.144531 311.773438 C 256.902344 311.730469 256.671875 311.652344 256.460938 311.539062 L 256.527344 311.414062 C 256.722656 311.519531 256.941406 311.59375 257.167969 311.636719 Z M 256.394531 311.503906 C 256.183594 311.382812 255.996094 311.226562 255.832031 311.046875 L 255.9375 310.953125 C 256.089844 311.121094 256.269531 311.265625 256.464844 311.378906 Z M 255.785156 310.992188 C 255.628906 310.808594 255.503906 310.597656 255.414062 310.371094 L 255.542969 310.320312 C 255.628906 310.53125 255.746094 310.726562 255.894531 310.902344 Z M 255.386719 310.304688 C 255.304688 310.082031 255.257812 309.839844 255.25 309.59375 L 255.390625 309.585938 C 255.398438 309.820312 255.441406 310.046875 255.519531 310.253906 Z M 255.246094 309.519531 C 255.246094 309.515625 255.246094 309.515625 255.246094 309.515625 C 255.246094 309.265625 255.285156 309.027344 255.359375 308.804688 L 255.492188 308.847656 C 255.425781 309.058594 255.386719 309.28125 255.386719 309.515625 C 255.386719 309.515625 255.386719 309.515625 255.386719 309.519531 Z M 255.382812 308.734375 C 255.46875 308.503906 255.585938 308.289062 255.734375 308.101562 L 255.84375 308.1875 C 255.707031 308.367188 255.59375 308.566406 255.515625 308.78125 Z M 255.78125 308.042969 C 255.9375 307.859375 256.121094 307.699219 256.328125 307.570312 L 256.402344 307.6875 C 256.207031 307.808594 256.035156 307.960938 255.886719 308.136719 Z M 256.390625 307.53125 C 256.597656 307.410156 256.824219 307.320312 257.066406 307.269531 L 257.09375 307.410156 C 256.867188 307.457031 256.652344 307.539062 256.460938 307.652344 Z M 257.136719 307.257812 C 257.269531 307.234375 257.402344 307.222656 257.539062 307.222656 C 257.648438 307.222656 257.757812 307.230469 257.863281 307.242188 L 257.84375 307.382812 C 257.742188 307.371094 257.644531 307.363281 257.539062 307.363281 C 257.410156 307.363281 257.285156 307.375 257.160156 307.394531 Z M 257.933594 307.253906 C 258.175781 307.296875 258.40625 307.378906 258.617188 307.488281 L 258.550781 307.613281 C 258.355469 307.507812 258.136719 307.433594 257.910156 307.394531 Z M 258.683594 307.527344 C 258.894531 307.648438 259.082031 307.800781 259.246094 307.980469 L 259.140625 308.074219 C 258.988281 307.90625 258.808594 307.761719 258.613281 307.648438 Z M 259.292969 308.035156 C 259.449219 308.21875 259.574219 308.429688 259.667969 308.65625 L 259.535156 308.707031 C 259.449219 308.496094 259.332031 308.300781 259.183594 308.125 Z M 259.695312 308.722656 C 259.777344 308.945312 259.824219 309.183594 259.832031 309.433594 L 259.691406 309.4375 C 259.683594 309.203125 259.636719 308.980469 259.5625 308.773438 Z M 259.832031 309.507812 C 259.832031 309.507812 259.832031 309.511719 259.832031 309.515625 C 259.832031 309.765625 259.792969 310.003906 259.71875 310.230469 L 259.585938 310.1875 C 259.65625 309.976562 259.691406 309.75 259.691406 309.515625 C 259.691406 309.511719 259.691406 309.511719 259.691406 309.507812 Z M 259.832031 309.507812 " fill-opacity="1" fill-rule="nonzero"/></svg>