<svg xmlns="http://www.w3.org/2000/svg" xmlns:xlink="http://www.w3.org/1999/xlink" width="500" zoomAndPan="magnify" viewBox="0 0 375 374.999991" height="500" preserveAspectRatio="xMidYMid meet" version="1.0"><defs><g/><clipPath id="6487ec543d"><path d="M 45.664062 45.664062 L 329.109375 45.664062 L 329.109375 329.109375 L 45.664062 329.109375 Z M 45.664062 45.664062 " clip-rule="nonzero"/></clipPath></defs><g clip-path="url(#6487ec543d)"><path fill="#000000" d="M 187.386719 329.109375 C 149.550781 329.109375 113.921875 314.382812 87.183594 287.589844 C 60.390625 260.851562 45.664062 225.222656 45.664062 187.386719 C 45.664062 149.550781 60.390625 113.921875 87.183594 87.183594 C 113.921875 60.390625 149.550781 45.664062 187.386719 45.664062 C 225.222656 45.664062 260.851562 60.390625 287.589844 87.183594 C 314.382812 113.976562 329.109375 149.550781 329.109375 187.386719 C 329.109375 225.222656 314.382812 260.851562 287.589844 287.589844 C 260.851562 314.382812 225.222656 329.109375 187.386719 329.109375 M 187.386719 54.160156 C 151.816406 54.160156 118.339844 68.039062 93.1875 93.1875 C 68.039062 118.339844 54.160156 151.816406 54.160156 187.386719 C 54.160156 222.957031 68.039062 256.433594 93.1875 281.585938 C 118.339844 306.734375 151.816406 320.613281 187.386719 320.613281 C 222.957031 320.613281 256.433594 306.734375 281.585938 281.585938 C 306.734375 256.433594 320.613281 222.957031 320.613281 187.386719 C 320.613281 151.816406 306.734375 118.339844 281.585938 93.1875 C 256.433594 68.039062 222.957031 54.160156 187.386719 54.160156 " fill-opacity="1" fill-rule="nonzero"/></g><g fill="#000000" fill-opacity="1"><g transform="translate(94.717087, 221.379828)"><g><path d="M 37.726562 -70.75 L 8.605469 -70.75 L 8.605469 0 L 40.226562 0 C 53.636719 0 60.542969 -10.609375 60.542969 -21.113281 C 60.542969 -27.71875 57.640625 -35.125 49.636719 -38.527344 C 54.4375 -42.128906 56.640625 -47.234375 56.640625 -52.335938 C 56.640625 -61.644531 49.335938 -70.75 37.726562 -70.75 Z M 37.527344 -42.128906 L 18.613281 -42.128906 L 18.613281 -61.144531 L 37.726562 -61.144531 C 43.429688 -61.144531 46.132812 -56.640625 46.132812 -51.9375 C 46.132812 -47.132812 43.128906 -42.128906 37.527344 -42.128906 Z M 40.226562 -9.808594 L 18.613281 -9.808594 L 18.613281 -32.121094 L 40.226562 -32.121094 C 47.03125 -32.121094 50.433594 -26.519531 50.433594 -21.015625 C 50.433594 -15.511719 47.03125 -9.808594 40.226562 -9.808594 Z M 40.226562 -9.808594 "/></g></g></g><g fill="#000000" fill-opacity="1"><g transform="translate(216.082841, 221.379828)"><g><path d="M 17.3125 -17.710938 L 45.730469 -17.710938 L 52.4375 0 L 63.246094 0 L 35.125 -70.949219 L 27.71875 -70.949219 L -0.398438 0 L 10.507812 0 Z M 42.03125 -27.21875 L 21.015625 -27.21875 L 31.523438 -54.839844 Z M 42.03125 -27.21875 "/></g></g></g><path stroke-linecap="butt" transform="matrix(0.00000000000000055, -8.986052, 8.893112, 0.000000000000000545, 187.759168, 244.208876)" fill="none" stroke-linejoin="miter" d="M 0.000205286 -0.000152441 L 12.603505 -0.000152441 " stroke="#000000" stroke-width="1" stroke-opacity="1" stroke-miterlimit="4"/></svg>