<svg xmlns="http://www.w3.org/2000/svg" xmlns:xlink="http://www.w3.org/1999/xlink" width="600" zoomAndPan="magnify" viewBox="0 0 450 449.999984" height="600" preserveAspectRatio="xMidYMid meet" version="1.0"><defs><clipPath id="id1"><path d="M 25.195312 160.902344 L 115.195312 160.902344 L 115.195312 250.902344 L 25.195312 250.902344 Z M 25.195312 160.902344 " clip-rule="nonzero"/></clipPath></defs><g clip-path="url(#id1)"><path fill="#dd2e44" d="M 115.195312 240.902344 C 115.195312 246.421875 110.71875 250.902344 105.195312 250.902344 L 35.195312 250.902344 C 29.671875 250.902344 25.195312 246.421875 25.195312 240.902344 L 25.195312 170.902344 C 25.195312 165.378906 29.671875 160.902344 35.195312 160.902344 L 105.195312 160.902344 C 110.71875 160.902344 115.195312 165.378906 115.195312 170.902344 Z M 115.195312 240.902344 " fill-opacity="1" fill-rule="nonzero"/></g><path fill="#ffffff" d="M 51.4375 184.023438 C 51.4375 180.304688 53.996094 178.210938 57.5625 178.210938 L 72.445312 178.210938 C 80.503906 178.210938 87.019531 183.636719 87.019531 191.855469 C 87.019531 197.277344 84.769531 200.921875 79.808594 203.25 L 79.808594 203.402344 C 86.398438 204.332031 91.589844 209.835938 91.589844 216.582031 C 91.589844 227.511719 84.304688 233.402344 73.605469 233.402344 L 57.640625 233.402344 C 54.074219 233.402344 51.4375 231.15625 51.4375 227.511719 Z M 63.066406 200.070312 L 69.113281 200.070312 C 72.910156 200.070312 75.390625 197.820312 75.390625 193.945312 C 75.390625 190.300781 72.523438 188.441406 69.113281 188.441406 L 63.066406 188.441406 Z M 63.066406 223.167969 L 72.214844 223.167969 C 76.398438 223.167969 79.5 220.765625 79.5 216.425781 C 79.5 212.78125 76.710938 210.300781 71.285156 210.300781 L 63.066406 210.300781 Z M 63.066406 223.167969 " fill-opacity="1" fill-rule="nonzero"/><path stroke-linecap="butt" transform="matrix(0.75, 0, 0, 0.75, 121.654379, 179.129796)" fill="none" stroke-linejoin="miter" d="M 24.55458 54.800901 L 40.070207 54.800901 L 42.99729 69.89986 L 57.799375 69.89986 L 43.195207 -6.350146 L 35.742081 -6.350146 L 35.523331 -6.251187 L 32.299373 -6.251187 L 32.200414 -6.350146 L 24.752497 -6.350146 L 24.752497 -6.251187 L 5.721246 69.89986 L 20.814997 69.89986 Z M 33.309789 19.540481 L 37.242081 40.196733 L 28.169164 40.196733 Z M 62.825417 -6.032437 L 62.825417 8.451939 L 82.377502 8.451939 L 82.377502 70.097777 L 96.856669 70.097777 L 96.856669 8.451939 L 116.408754 8.451939 L 116.408754 -6.032437 L 96.856669 -6.032437 L 96.856669 -6.152229 L 82.377502 -6.152229 L 82.377502 -6.032437 Z M 160.934799 39.384233 C 160.835841 35.550899 159.507716 31.936316 157.200424 29.10819 C 160.221258 25.493607 161.945216 20.842565 161.945216 15.608189 C 161.945216 3.72798 153.065007 -5.147021 140.575423 -6.152229 L 121.445213 -6.032437 L 121.445213 70.097777 L 136.049381 70.097777 L 136.049381 37.269649 L 144.018131 37.269649 C 145.320215 37.269649 146.330631 38.280066 146.330631 39.483191 L 146.528548 70.097777 L 161.033758 70.097777 Z M 138.163964 22.665482 L 136.148339 22.665482 L 136.148339 8.35298 L 138.163964 8.35298 C 139.663964 8.35298 147.33584 8.769647 147.33584 15.608189 C 147.33584 22.149856 140.377506 22.665482 138.163964 22.665482 Z M 189.419177 37.071733 L 196.893135 37.071733 L 196.893135 52.983192 C 196.893135 54.285276 195.762927 55.295692 194.460844 55.295692 L 183.788968 55.295692 C 182.585843 55.295692 181.575426 54.285276 181.575426 53.082151 L 181.575426 10.665481 C 181.575426 9.363397 182.585843 8.254022 183.887926 8.254022 L 194.361885 8.254022 C 195.762927 8.254022 196.893135 9.363397 196.893135 10.785272 L 196.893135 14.306106 L 211.377512 14.306106 L 211.377512 10.785272 C 211.377512 1.32173 203.731678 -6.251187 194.361885 -6.251187 L 183.887926 -6.251187 C 174.518134 -6.251187 166.971258 1.32173 166.971258 10.665481 L 166.971258 53.082151 C 166.971258 62.352985 174.518134 69.89986 183.788968 69.89986 L 194.460844 69.89986 C 203.830636 69.89986 211.377512 62.254026 211.377512 52.983192 L 211.47647 22.467565 L 189.419177 22.467565 Z M 244.012931 -6.032437 L 233.440013 -6.032437 C 224.169179 -6.032437 216.523345 1.519647 216.523345 10.884231 L 216.523345 53.181109 C 216.523345 62.550901 224.169179 70.097777 233.440013 70.097777 L 244.012931 70.097777 C 253.382723 70.097777 260.934807 62.550901 260.934807 53.181109 L 260.934807 10.884231 C 260.934807 1.519647 253.382723 -6.032437 244.012931 -6.032437 Z M 246.450431 53.181109 C 246.450431 54.483192 245.320223 55.493609 244.012931 55.493609 L 233.440013 55.493609 C 232.13793 55.493609 231.127513 54.483192 231.127513 53.181109 L 231.127513 10.884231 C 231.127513 9.556105 232.13793 8.451939 233.440013 8.451939 L 244.012931 8.451939 C 245.320223 8.451939 246.450431 9.556105 246.450431 10.884231 Z M 265.976474 -6.152229 L 265.976474 53.181109 C 265.976474 62.550901 273.622308 70.097777 282.893142 70.097777 L 293.46606 70.097777 C 302.835852 70.097777 310.382728 62.550901 310.382728 53.181109 L 310.382728 -6.152229 L 295.90356 -6.152229 L 295.90356 53.181109 C 295.90356 54.483192 294.768143 55.493609 293.46606 55.493609 L 282.893142 55.493609 C 281.591059 55.493609 280.580642 54.483192 280.580642 53.181109 L 280.580642 -6.152229 Z M 315.429603 -6.032437 L 315.429603 8.451939 L 334.97648 8.451939 L 334.97648 70.097777 L 349.460856 70.097777 L 349.460856 8.451939 L 369.007732 8.451939 L 369.007732 -6.032437 L 349.460856 -6.032437 L 349.460856 -6.152229 L 334.97648 -6.152229 L 334.97648 -6.032437 Z M 388.653567 -6.350146 L 374.049399 -6.350146 L 374.049399 69.89986 L 388.653567 69.89986 Z M 388.653567 -6.350146 " stroke="#ffffff" stroke-width="2.895959" stroke-opacity="1" stroke-miterlimit="4"/></svg>